<?xml version="1.0" encoding="UTF-8"?>
<svg id="Layer_2" data-name="Layer 2" xmlns="http://www.w3.org/2000/svg" viewBox="0 0 85.89 21.05">
  <defs>
    <style>
      .cls-1, .cls-2 {
        fill: #c2a052;
      }

      .cls-3 {
        fill: #1c1917;
      }

      .cls-2 {
        fill-rule: evenodd;
      }
    </style>
  </defs>
  <g id="Layer_1-2" data-name="Layer 1">
    <g>
      <path class="cls-1" d="M27.49,10.03c-.46-.18-.82-.45-1.08-.83s-.38-.84-.35-1.4h1.07c0,.58.17,1,.54,1.26s.84.38,1.44.38c.53,0,.97-.11,1.31-.34s.51-.56.51-1c0-.28-.07-.51-.2-.7s-.35-.35-.64-.49-.7-.27-1.21-.4c-.62-.15-1.12-.32-1.49-.5s-.65-.41-.83-.69-.28-.62-.28-1.05c0-.45.11-.82.32-1.13s.51-.55.91-.71.87-.24,1.41-.24.99.08,1.41.25.76.42,1,.75.37.73.37,1.21h-1.07c0-.29-.07-.53-.21-.74s-.35-.35-.61-.46-.56-.16-.88-.16c-.5,0-.89.1-1.17.3s-.42.49-.42.87c0,.23.06.43.18.58s.33.29.61.42.7.26,1.24.4c.65.17,1.16.35,1.52.54s.64.43.81.72.26.67.26,1.15-.12.88-.37,1.22-.59.59-1.03.77-.94.26-1.5.26-1.12-.09-1.58-.27Z"/>
      <path class="cls-1" d="M34.98,9.97c-.47-.26-.82-.63-1.04-1.09s-.33-1-.33-1.62V2.31h1.08v4.83c0,.8.17,1.39.52,1.77s.86.56,1.56.56,1.21-.19,1.56-.56.52-.96.52-1.76V2.31h1.08v4.95c0,.62-.11,1.16-.33,1.62s-.57.83-1.04,1.09-1.07.4-1.79.4-1.31-.13-1.78-.4Z"/>
      <path class="cls-1" d="M42.09,2.31h1.09l4.31,6.25V2.31h1.01v7.89h-1.08l-4.32-6.27v6.27h-1.01V2.31Z"/>
    </g>
    <g>
      <path class="cls-3" d="M51.73,10.03c-.46-.18-.82-.45-1.08-.83s-.38-.84-.35-1.4h1.07c0,.58.17,1,.54,1.26s.84.38,1.44.38c.53,0,.97-.11,1.31-.34s.51-.56.51-1c0-.28-.07-.51-.2-.7s-.35-.35-.64-.49-.7-.27-1.21-.4c-.62-.15-1.12-.32-1.49-.5s-.65-.41-.83-.69-.28-.62-.28-1.05c0-.45.11-.82.32-1.13s.51-.55.91-.71.87-.24,1.41-.24.99.08,1.41.25.76.42,1,.75.37.73.37,1.21h-1.07c0-.29-.07-.53-.21-.74s-.35-.35-.61-.46-.56-.16-.88-.16c-.5,0-.89.1-1.17.3s-.42.49-.42.87c0,.23.06.43.18.58s.33.29.61.42.7.26,1.24.4c.65.17,1.16.35,1.52.54s.64.43.81.72.26.67.26,1.15-.12.88-.37,1.22-.59.59-1.03.77-.94.26-1.5.26-1.12-.09-1.58-.27Z"/>
      <path class="cls-3" d="M58.92,3.2h-2.24v-.89h5.54v.89h-2.23v7h-1.07V3.2Z"/>
      <path class="cls-3" d="M64.56,9.79c-.57-.34-.99-.81-1.28-1.42s-.43-1.31-.43-2.12.14-1.51.43-2.12.71-1.08,1.28-1.42,1.25-.51,2.06-.51,1.49.17,2.05.51.98.81,1.27,1.42.43,1.32.43,2.12-.14,1.51-.43,2.12-.71,1.08-1.27,1.42-1.24.51-2.05.51-1.5-.17-2.06-.51ZM68.12,9.01c.39-.28.68-.65.87-1.13s.28-1.02.28-1.63-.09-1.16-.28-1.63-.48-.85-.87-1.13-.89-.42-1.5-.42-1.11.14-1.51.42-.69.65-.87,1.13-.28,1.02-.28,1.63.09,1.15.28,1.63.47.85.87,1.13.9.42,1.51.42,1.11-.14,1.5-.42Z"/>
      <path class="cls-3" d="M72.11,2.31h1.09l4.31,6.25V2.31h1.01v7.89h-1.08l-4.32-6.27v6.27h-1.01V2.31Z"/>
      <path class="cls-3" d="M80.86,2.31h5.03v.89h-3.97v2.5h3.66v.87h-3.66v2.73h3.97v.89h-5.03V2.31Z"/>
    </g>
    <g>
      <path class="cls-3" d="M27.35,14.02h.66l1.69,4.57h-.64l-.43-1.28h-1.89l-.46,1.28h-.64l1.71-4.57ZM28.44,16.79l-.77-2.16-.78,2.16h1.55Z"/>
      <path class="cls-3" d="M31.6,14.02c.48,0,.88.09,1.22.27s.6.44.77.78c.18.34.27.75.27,1.23s-.09.9-.27,1.24c-.18.34-.44.6-.77.78s-.75.27-1.22.27h-1.54v-4.57h1.54ZM32.79,17.64c.29-.29.43-.73.43-1.34s-.15-1.04-.44-1.33c-.29-.29-.73-.44-1.32-.44h-.79v3.54h.79c.6,0,1.04-.14,1.33-.43Z"/>
      <path class="cls-3" d="M34.04,14.02h.66l1.35,3.92,1.36-3.92h.66l-1.66,4.57h-.72l-1.64-4.57Z"/>
      <path class="cls-3" d="M38.46,14.02h.62v4.57h-.62v-4.57Z"/>
      <path class="cls-3" d="M40.51,18.5c-.27-.1-.48-.26-.63-.48s-.22-.49-.21-.81h.62c0,.34.1.58.31.73.21.15.49.22.83.22.31,0,.56-.07.76-.2.2-.13.3-.32.3-.58,0-.16-.04-.3-.12-.4s-.2-.2-.37-.28-.4-.16-.7-.23c-.36-.09-.65-.19-.86-.29-.22-.11-.38-.24-.48-.4-.11-.16-.16-.36-.16-.61,0-.26.06-.48.18-.66.12-.18.3-.32.53-.41s.5-.14.82-.14.57.05.82.15c.24.1.44.24.58.44.14.19.22.43.22.7h-.62c0-.17-.04-.31-.12-.43s-.2-.21-.36-.27-.32-.09-.51-.09c-.29,0-.52.06-.68.18-.16.12-.24.29-.24.51,0,.14.04.25.11.34.07.09.19.17.35.24.17.07.41.15.72.23.38.1.67.2.88.31s.37.25.47.42c.1.17.15.39.15.66s-.07.51-.22.71c-.14.2-.34.34-.6.45-.25.1-.55.15-.87.15s-.65-.05-.91-.15Z"/>
      <path class="cls-3" d="M44.5,18.36c-.33-.2-.58-.47-.74-.82-.17-.35-.25-.76-.25-1.23s.08-.88.25-1.23c.17-.35.41-.63.74-.83.33-.2.73-.3,1.19-.3s.86.1,1.19.3c.33.2.57.47.74.83.17.35.25.76.25,1.23s-.08.88-.25,1.23c-.17.35-.41.63-.74.82-.32.2-.72.29-1.19.29s-.87-.1-1.2-.29ZM46.57,17.91c.23-.16.4-.38.5-.65.11-.27.16-.59.16-.94s-.05-.67-.16-.95c-.11-.28-.28-.5-.5-.66-.23-.16-.52-.24-.87-.24s-.65.08-.88.24c-.23.16-.4.38-.51.66s-.16.59-.16.95.05.67.16.94c.11.28.28.49.51.65.23.16.52.24.88.24s.64-.08.87-.24Z"/>
      <path class="cls-3" d="M50.28,14.02c.27,0,.52.04.73.13.22.09.39.22.51.4.13.18.19.41.19.69,0,.29-.08.54-.25.74s-.4.34-.71.41c.17.02.3.08.41.16.11.08.2.19.28.34.07.14.14.33.2.56l.3,1.15h-.63l-.26-1.05c-.05-.21-.12-.39-.19-.51-.07-.13-.15-.22-.26-.28-.1-.06-.23-.09-.38-.09h-1.08v1.93h-.62v-4.57h1.73ZM50.66,16.04c.14-.06.24-.16.32-.28s.12-.26.12-.43c0-.26-.08-.45-.23-.59-.15-.14-.37-.21-.65-.21h-1.05v1.61h1.03c.17,0,.32-.03.46-.1Z"/>
      <path class="cls-3" d="M53.48,16.77l-1.57-2.75h.66l1.22,2.22,1.22-2.22h.66l-1.57,2.75v1.82h-.62v-1.82Z"/>
    </g>
    <polyline class="cls-3" points="9.06 0 0 0 0 21.05 21.05 21.05 21.05 11.97"/>
    <polygon class="cls-2" points="11.22 0 21.05 9.79 21.05 0 11.22 0"/>
  </g>
</svg>